<svg width="94" height="257" viewBox="0 0 94 257" fill="none" xmlns="http://www.w3.org/2000/svg">
<path fill-rule="evenodd" clip-rule="evenodd" d="M54 142H39V219H39.1388L46.5 231L53.8612 219H54V142ZM78 168H63V245H63.1388L70.5 257L77.8612 245H78V168ZM15 168H30V245H29.8612L22.5 257L15.1388 245H15V168Z" fill="#28666E"/>
<path fill-rule="evenodd" clip-rule="evenodd" d="M93.6667 153.426L93.7654 153.75H93.4125L70.5 183L47.5875 153.75H46.4125L23.5 183L0.5875 153.75H0.234627L0.333323 153.426L0 153H0.462751L47 0L93.5372 153H94L93.6667 153.426Z" fill="#D9D9D9"/>
</svg>
